# xmcd
#
# Track frame offsets:
#	150
#	13410
#	23333
#	34078
#	48546
#	61344
#	72740
#	87784
#	98427
#	111120
#	121593
#	132769
#	149864
#	162821
#	174751
#	186991
#	200889
#	213275
#	223005
#	232233
#
# Disc length: 3284 seconds
#
# Revision: 1
# Processed by: cddbd v1.5.2PL0 Copyright (c) Steve Scherf et al.
# Submitted via: audiograbber 1.83.01
#
DISCID=230cd214
DTITLE=Philomena Begley - Once Around The Dance Floor [CD1)
DYEAR=1900
DGENRE=
TTITLE0=The Song From Way Back Then
TTITLE1=Honky Tonkin'
TTITLE2=Ease The Fever
TTITLE3=Blanket On The Ground
TTITLE4=Love Was Once Around The Dance Floor
TTITLE5=José Cuervo
TTITLE6=I'm Gonna Be Your Woman Tonight
TTITLE7=False Eyelashes
TTITLE8=Irish Eyes
TTITLE9=Buck Dance
TTITLE10=The Big Wheel Cannonball
TTITLE11=Galway Bay
TTITLE12=Little Grey Home In The West
TTITLE13=Carolina Moon
TTITLE14=Take Me Along
TTITLE15=The Gambler
TTITLE16=Memories Are Made Of This
TTITLE17=I Just Wanna Be A Country Girl
TTITLE18=Truck Drivin' Woman
TTITLE19=Flower Of Scotland
EXTD=
EXTT0=
EXTT1=
EXTT2=
EXTT3=
EXTT4=
EXTT5=
EXTT6=
EXTT7=
EXTT8=
EXTT9=
EXTT10=
EXTT11=
EXTT12=
EXTT13=
EXTT14=
EXTT15=
EXTT16=
EXTT17=
EXTT18=
EXTT19=
PLAYORDER=
